<svg width="173" height="50" viewBox="0 0 173 50" fill="none" xmlns="http://www.w3.org/2000/svg">
<path fill-rule="evenodd" clip-rule="evenodd" d="M166.226 49.9941H6.39446C2.87916 49.9941 0 47.1828 0 43.7438V6.25037C0 2.81429 2.87615 0 6.39446 0H166.226C169.741 0 172.62 2.81134 172.62 6.25037V43.7467C172.62 47.1828 169.744 49.9941 166.226 49.9941Z" fill="white"/>
<path fill-rule="evenodd" clip-rule="evenodd" d="M166.226 0.00292969H6.39446C2.87916 0.00292969 0 2.81427 0 6.2533V43.7496C0 47.1857 2.87615 50 6.39446 50H166.226C169.741 50 172.62 47.1887 172.62 43.7496V6.25035C172.62 2.81427 169.744 0.00292969 166.226 0.00292969ZM166.226 1.00192C169.186 1.00192 171.595 3.3565 171.595 6.25035V43.7467C171.595 46.6406 169.186 48.9951 166.226 48.9951H6.39446C3.43389 48.9951 1.02504 46.6406 1.02504 43.7467V6.25035C1.02504 3.3565 3.43389 1.00192 6.39446 1.00192H166.226Z" fill="white"/>
<path d="M53.3819 12.5016C53.3819 12.7613 53.4045 13.0106 53.4499 13.2489C53.4019 13.0121 53.3779 12.7632 53.3779 12.5016C53.3779 12.2452 53.4008 12.0011 53.4467 11.7688C53.4034 12.0029 53.3819 12.2474 53.3819 12.5016Z" fill="#160C4D" stroke="#160C4D"/>
<mask id="path-4-inside-1_155_794" fill="white">
<path fill-rule="evenodd" clip-rule="evenodd" d="M66.5294 9.67065H63.0352V12.0488H66.1826V12.9506H63.0352V15.3287H66.5294V16.2511H62.0493V8.75122H66.5294V9.67065Z"/>
</mask>
<path fill-rule="evenodd" clip-rule="evenodd" d="M66.5294 9.67065H63.0352V12.0488H66.1826V12.9506H63.0352V15.3287H66.5294V16.2511H62.0493V8.75122H66.5294V9.67065Z" fill="#160C4D"/>
<path d="M66.5294 9.67065V10.6707H67.5294V9.67065H66.5294ZM63.0352 9.67065V8.67065H62.0352V9.67065H63.0352ZM63.0352 12.0488H62.0352V13.0488H63.0352V12.0488ZM66.1826 12.0488H67.1826V11.0488H66.1826V12.0488ZM66.1826 12.9506V13.9506H67.1826V12.9506H66.1826ZM63.0352 12.9506V11.9506H62.0352V12.9506H63.0352ZM63.0352 15.3287H62.0352V16.3287H63.0352V15.3287ZM66.5294 15.3287H67.5294V14.3287H66.5294V15.3287ZM66.5294 16.2511V17.2511H67.5294V16.2511H66.5294ZM62.0493 16.2511H61.0493V17.2511H62.0493V16.2511ZM62.0493 8.75122V7.75122H61.0493V8.75122H62.0493ZM66.5294 8.75122H67.5294V7.75122H66.5294V8.75122ZM66.5294 8.67065H63.0352V10.6707H66.5294V8.67065ZM62.0352 9.67065V12.0488H64.0352V9.67065H62.0352ZM63.0352 13.0488H66.1826V11.0488H63.0352V13.0488ZM65.1826 12.0488V12.9506H67.1826V12.0488H65.1826ZM66.1826 11.9506H63.0352V13.9506H66.1826V11.9506ZM62.0352 12.9506V15.3287H64.0352V12.9506H62.0352ZM63.0352 16.3287H66.5294V14.3287H63.0352V16.3287ZM65.5294 15.3287V16.2511H67.5294V15.3287H65.5294ZM66.5294 15.2511H62.0493V17.2511H66.5294V15.2511ZM63.0493 16.2511V8.75122H61.0493V16.2511H63.0493ZM62.0493 9.75122H66.5294V7.75122H62.0493V9.75122ZM65.5294 8.75122V9.67065H67.5294V8.75122H65.5294Z" fill="#160C4D" mask="url(#path-4-inside-1_155_794)"/>
<mask id="path-6-inside-2_155_794" fill="white">
<path fill-rule="evenodd" clip-rule="evenodd" d="M70.6821 16.2484H69.6963V9.67092H67.5527V8.74854H72.8257V9.67092H70.6821V16.2484Z"/>
</mask>
<path fill-rule="evenodd" clip-rule="evenodd" d="M70.6821 16.2484H69.6963V9.67092H67.5527V8.74854H72.8257V9.67092H70.6821V16.2484Z" fill="#160C4D"/>
<path d="M70.6821 16.2484V17.2484H71.6821V16.2484H70.6821ZM69.6963 16.2484H68.6963V17.2484H69.6963V16.2484ZM69.6963 9.67092H70.6963V8.67092H69.6963V9.67092ZM67.5527 9.67092H66.5527V10.6709H67.5527V9.67092ZM67.5527 8.74854V7.74854H66.5527V8.74854H67.5527ZM72.8257 8.74854H73.8257V7.74854H72.8257V8.74854ZM72.8257 9.67092V10.6709H73.8257V9.67092H72.8257ZM70.6821 9.67092V8.67092H69.6821V9.67092H70.6821ZM70.6821 15.2484H69.6963V17.2484H70.6821V15.2484ZM70.6963 16.2484V9.67092H68.6963V16.2484H70.6963ZM69.6963 8.67092H67.5527V10.6709H69.6963V8.67092ZM68.5527 9.67092V8.74854H66.5527V9.67092H68.5527ZM67.5527 9.74854H72.8257V7.74854H67.5527V9.74854ZM71.8257 8.74854V9.67092H73.8257V8.74854H71.8257ZM72.8257 8.67092H70.6821V10.6709H72.8257V8.67092ZM69.6821 9.67092V16.2484H71.6821V9.67092H69.6821Z" fill="#160C4D" mask="url(#path-6-inside-2_155_794)"/>
<mask id="path-8-inside-3_155_794" fill="white">
<path fill-rule="evenodd" clip-rule="evenodd" d="M76.6392 16.2484H77.625V8.74854H76.6392V16.2484Z"/>
</mask>
<path fill-rule="evenodd" clip-rule="evenodd" d="M76.6392 16.2484H77.625V8.74854H76.6392V16.2484Z" fill="#160C4D"/>
<path d="M76.6392 16.2484H75.6392V17.2484H76.6392V16.2484ZM77.625 16.2484V17.2484H78.625V16.2484H77.625ZM77.625 8.74854H78.625V7.74854H77.625V8.74854ZM76.6392 8.74854V7.74854H75.6392V8.74854H76.6392ZM76.6392 17.2484H77.625V15.2484H76.6392V17.2484ZM78.625 16.2484V8.74854H76.625V16.2484H78.625ZM77.625 7.74854H76.6392V9.74854H77.625V7.74854ZM75.6392 8.74854V16.2484H77.6392V8.74854H75.6392Z" fill="#160C4D" mask="url(#path-8-inside-3_155_794)"/>
<mask id="path-10-inside-4_155_794" fill="white">
<path fill-rule="evenodd" clip-rule="evenodd" d="M82 16.2484H81.0142V9.67092H78.8706V8.74854H84.1436V9.67092H82V16.2484Z"/>
</mask>
<path fill-rule="evenodd" clip-rule="evenodd" d="M82 16.2484H81.0142V9.67092H78.8706V8.74854H84.1436V9.67092H82V16.2484Z" fill="#160C4D"/>
<path d="M82 16.2484V17.2484H83V16.2484H82ZM81.0142 16.2484H80.0142V17.2484H81.0142V16.2484ZM81.0142 9.67092H82.0142V8.67092H81.0142V9.67092ZM78.8706 9.67092H77.8706V10.6709H78.8706V9.67092ZM78.8706 8.74854V7.74854H77.8706V8.74854H78.8706ZM84.1436 8.74854H85.1436V7.74854H84.1436V8.74854ZM84.1436 9.67092V10.6709H85.1436V9.67092H84.1436ZM82 9.67092V8.67092H81V9.67092H82ZM82 15.2484H81.0142V17.2484H82V15.2484ZM82.0142 16.2484V9.67092H80.0142V16.2484H82.0142ZM81.0142 8.67092H78.8706V10.6709H81.0142V8.67092ZM79.8706 9.67092V8.74854H77.8706V9.67092H79.8706ZM78.8706 9.74854H84.1436V7.74854H78.8706V9.74854ZM83.1436 8.74854V9.67092H85.1436V8.74854H83.1436ZM84.1436 8.67092H82V10.6709H84.1436V8.67092ZM81 9.67092V16.2484H83V9.67092H81Z" fill="#160C4D" mask="url(#path-10-inside-4_155_794)"/>
<path d="M94.6667 13.3118C94.7203 13.0541 94.747 12.7838 94.747 12.5017C94.747 12.3612 94.7404 12.2236 94.7271 12.0889C94.741 12.2221 94.7479 12.3587 94.7479 12.4987L94.748 12.5014C94.7495 12.7862 94.7224 13.056 94.6667 13.3118ZM87.9784 13.4219C87.9042 13.1335 87.8672 12.8272 87.8672 12.5017C87.8672 12.1581 87.9084 11.8357 87.991 11.5331C87.913 11.8381 87.8741 12.1616 87.8741 12.5017C87.8741 12.8241 87.9087 13.1312 87.9784 13.4219Z" fill="#160C4D" stroke="#160C4D"/>
<path d="M101.608 15.0805H102.054V15.7484H101.797L101.372 15.0805H101.565H101.608ZM97.5799 9.63063H97.1362V9.24854H97.5624L97.8067 9.63063H97.6221H97.5799Z" fill="#160C4D" stroke="#160C4D"/>
<path d="M18.2261 13.1678C18.2261 13.1153 18.2276 13.0645 18.2304 13.0155L30.422 24.9092L18.2315 36.825C18.2279 36.7704 18.2261 36.7137 18.2261 36.6549V13.1678Z" fill="#160C4D" stroke="#160C4D"/>
<mask id="path-15-inside-5_155_794" fill="white">
<path fill-rule="evenodd" clip-rule="evenodd" d="M18.0054 11.9747C18.0105 11.9628 18.0182 11.9533 18.0258 11.9414C18.0182 11.9533 18.013 11.9652 18.0054 11.9747Z"/>
</mask>
<path fill-rule="evenodd" clip-rule="evenodd" d="M18.0054 11.9747C18.0105 11.9628 18.0182 11.9533 18.0258 11.9414C18.0182 11.9533 18.013 11.9652 18.0054 11.9747Z" fill="#160C4D"/>
<path d="M18.0054 11.9747L17.0865 11.5802L18.7843 12.6019L18.0054 11.9747ZM18.9242 12.3693C18.8937 12.4404 18.8613 12.4905 18.8508 12.5066C18.8464 12.5133 18.8419 12.5198 18.8463 12.5133C18.8486 12.5099 18.8569 12.4978 18.8665 12.4829L17.1851 11.3999C17.1909 11.391 17.1953 11.3845 17.1939 11.3866C17.1937 11.3868 17.1936 11.387 17.1933 11.3874C17.1931 11.3877 17.1928 11.3882 17.1924 11.3888C17.1917 11.3898 17.1906 11.3914 17.1894 11.3932C17.1869 11.3968 17.1831 11.4026 17.1785 11.4096C17.1609 11.4364 17.1222 11.4972 17.0865 11.5802L18.9242 12.3693ZM17.1851 11.3999C17.1698 11.4236 17.1583 11.4435 17.1519 11.4546C17.1488 11.4602 17.1462 11.4648 17.1452 11.4666C17.1436 11.4695 17.1443 11.4682 17.1449 11.4671C17.1463 11.4647 17.1545 11.4501 17.1665 11.4311C17.179 11.4115 17.1989 11.3818 17.2265 11.3476L18.7843 12.6019C18.8156 12.5629 18.8391 12.5282 18.8549 12.5032C18.8703 12.479 18.8817 12.4589 18.8863 12.4508C18.8875 12.4486 18.8886 12.4466 18.8894 12.4453C18.8897 12.4447 18.8901 12.4441 18.8903 12.4436C18.8906 12.4431 18.8907 12.443 18.8908 12.4427C18.8914 12.4416 18.8905 12.4434 18.889 12.446C18.886 12.4512 18.878 12.4651 18.8665 12.4829L17.1851 11.3999Z" fill="#160C4D" mask="url(#path-15-inside-5_155_794)"/>
<path d="M20.247 12.0482L35.1258 20.3109L31.8986 23.4654L20.1283 11.985C20.1668 12.0044 20.2058 12.0252 20.2454 12.0473L20.2454 12.0473L20.247 12.0482Z" fill="#160C4D" stroke="#160C4D"/>
<path d="M41.433 23.8139L41.4333 23.8141C42.1038 24.186 42.3142 24.6037 42.3142 24.909C42.3142 25.2141 42.104 25.631 41.4338 26.0018L41.433 26.0022L37.0178 28.4553L33.3847 24.9126L37.0182 21.361L41.433 23.8139Z" fill="#160C4D" stroke="#160C4D"/>
<path d="M35.1345 29.5039L20.2469 37.7757C20.2468 37.7758 20.2466 37.7759 20.2464 37.776C20.2365 37.7815 20.2266 37.7869 20.2167 37.7922L31.9089 26.359L35.1345 29.5039Z" fill="#160C4D" stroke="#160C4D"/>
<mask id="path-20-inside-6_155_794" fill="white">
<path fill-rule="evenodd" clip-rule="evenodd" d="M17.9917 37.8149C18.0532 37.9252 18.1225 38.0255 18.2019 38.1107C18.1225 38.0204 18.0481 37.9252 17.9917 37.8149Z"/>
</mask>
<path fill-rule="evenodd" clip-rule="evenodd" d="M17.9917 37.8149C18.0532 37.9252 18.1225 38.0255 18.2019 38.1107C18.1225 38.0204 18.0481 37.9252 17.9917 37.8149Z" fill="#160C4D"/>
<path d="M17.9917 37.8149L18.8649 37.3276L17.1014 38.2703L17.9917 37.8149ZM18.2019 38.1107L17.4707 38.7928L18.9523 37.4496L18.2019 38.1107ZM17.1185 38.3022C17.2087 38.464 17.3231 38.6346 17.4707 38.7928L18.9332 37.4286C18.9218 37.4163 18.8977 37.3864 18.8649 37.3276L17.1185 38.3022ZM18.9523 37.4496C18.8961 37.3858 18.8835 37.3626 18.882 37.3595L17.1014 38.2703C17.2127 38.4879 17.3488 38.6551 17.4516 38.7717L18.9523 37.4496Z" fill="#160C4D" mask="url(#path-20-inside-6_155_794)"/>
<path d="M57.8433 37.5487C57.0333 37.5487 56.2883 37.4187 55.6083 37.1587C54.9283 36.8887 54.3383 36.5137 53.8383 36.0337C53.3383 35.5437 52.9483 34.9737 52.6683 34.3237C52.3883 33.6737 52.2483 32.9587 52.2483 32.1787C52.2483 31.3987 52.3883 30.6837 52.6683 30.0337C52.9483 29.3837 53.3383 28.8187 53.8383 28.3387C54.3483 27.8487 54.9433 27.4737 55.6233 27.2137C56.3033 26.9437 57.0533 26.8087 57.8733 26.8087C58.7033 26.8087 59.4633 26.9437 60.1533 27.2137C60.8433 27.4837 61.4283 27.8887 61.9083 28.4287L60.9783 29.3587C60.5483 28.9387 60.0783 28.6337 59.5683 28.4437C59.0683 28.2437 58.5233 28.1437 57.9333 28.1437C57.3333 28.1437 56.7733 28.2437 56.2533 28.4437C55.7433 28.6437 55.2983 28.9237 54.9183 29.2837C54.5483 29.6437 54.2583 30.0737 54.0483 30.5737C53.8483 31.0637 53.7483 31.5987 53.7483 32.1787C53.7483 32.7487 53.8483 33.2837 54.0483 33.7837C54.2583 34.2737 54.5483 34.7037 54.9183 35.0737C55.2983 35.4337 55.7433 35.7137 56.2533 35.9137C56.7633 36.1137 57.3183 36.2137 57.9183 36.2137C58.4783 36.2137 59.0133 36.1287 59.5233 35.9587C60.0433 35.7787 60.5233 35.4837 60.9633 35.0737L61.8183 36.2137C61.2983 36.6537 60.6883 36.9887 59.9883 37.2187C59.2983 37.4387 58.5833 37.5487 57.8433 37.5487ZM60.3783 36.0187V32.1187H61.8183V36.2137L60.3783 36.0187ZM67.8852 37.5187C67.0852 37.5187 66.3752 37.3437 65.7552 36.9937C65.1352 36.6437 64.6452 36.1637 64.2852 35.5537C63.9252 34.9337 63.7452 34.2337 63.7452 33.4537C63.7452 32.6637 63.9252 31.9637 64.2852 31.3537C64.6452 30.7437 65.1352 30.2687 65.7552 29.9287C66.3752 29.5787 67.0852 29.4037 67.8852 29.4037C68.6752 29.4037 69.3802 29.5787 70.0002 29.9287C70.6302 30.2687 71.1202 30.7437 71.4702 31.3537C71.8302 31.9537 72.0102 32.6537 72.0102 33.4537C72.0102 34.2437 71.8302 34.9437 71.4702 35.5537C71.1202 36.1637 70.6302 36.6437 70.0002 36.9937C69.3802 37.3437 68.6752 37.5187 67.8852 37.5187ZM67.8852 36.2587C68.3952 36.2587 68.8502 36.1437 69.2502 35.9137C69.6602 35.6837 69.9802 35.3587 70.2102 34.9387C70.4402 34.5087 70.5552 34.0137 70.5552 33.4537C70.5552 32.8837 70.4402 32.3937 70.2102 31.9837C69.9802 31.5637 69.6602 31.2387 69.2502 31.0087C68.8502 30.7787 68.3952 30.6637 67.8852 30.6637C67.3752 30.6637 66.9202 30.7787 66.5202 31.0087C66.1202 31.2387 65.8002 31.5637 65.5602 31.9837C65.3202 32.3937 65.2002 32.8837 65.2002 33.4537C65.2002 34.0137 65.3202 34.5087 65.5602 34.9387C65.8002 35.3587 66.1202 35.6837 66.5202 35.9137C66.9202 36.1437 67.3752 36.2587 67.8852 36.2587ZM77.4067 37.5187C76.6067 37.5187 75.8967 37.3437 75.2767 36.9937C74.6567 36.6437 74.1667 36.1637 73.8067 35.5537C73.4467 34.9337 73.2667 34.2337 73.2667 33.4537C73.2667 32.6637 73.4467 31.9637 73.8067 31.3537C74.1667 30.7437 74.6567 30.2687 75.2767 29.9287C75.8967 29.5787 76.6067 29.4037 77.4067 29.4037C78.1967 29.4037 78.9017 29.5787 79.5217 29.9287C80.1517 30.2687 80.6417 30.7437 80.9917 31.3537C81.3517 31.9537 81.5317 32.6537 81.5317 33.4537C81.5317 34.2437 81.3517 34.9437 80.9917 35.5537C80.6417 36.1637 80.1517 36.6437 79.5217 36.9937C78.9017 37.3437 78.1967 37.5187 77.4067 37.5187ZM77.4067 36.2587C77.9167 36.2587 78.3717 36.1437 78.7717 35.9137C79.1817 35.6837 79.5017 35.3587 79.7317 34.9387C79.9617 34.5087 80.0767 34.0137 80.0767 33.4537C80.0767 32.8837 79.9617 32.3937 79.7317 31.9837C79.5017 31.5637 79.1817 31.2387 78.7717 31.0087C78.3717 30.7787 77.9167 30.6637 77.4067 30.6637C76.8967 30.6637 76.4417 30.7787 76.0417 31.0087C75.6417 31.2387 75.3217 31.5637 75.0817 31.9837C74.8417 32.3937 74.7217 32.8837 74.7217 33.4537C74.7217 34.0137 74.8417 34.5087 75.0817 34.9387C75.3217 35.3587 75.6417 35.6837 76.0417 35.9137C76.4417 36.1437 76.8967 36.2587 77.4067 36.2587ZM87.0032 40.4287C86.2732 40.4287 85.5632 40.3237 84.8732 40.1137C84.1932 39.9137 83.6382 39.6237 83.2082 39.2437L83.8982 38.1337C84.2682 38.4537 84.7232 38.7037 85.2632 38.8837C85.8032 39.0737 86.3682 39.1687 86.9582 39.1687C87.8982 39.1687 88.5882 38.9487 89.0282 38.5087C89.4682 38.0687 89.6882 37.3987 89.6882 36.4987V34.8187L89.8382 33.2437L89.7632 31.6537V29.4787H91.1282V36.3487C91.1282 37.7487 90.7782 38.7787 90.0782 39.4387C89.3782 40.0987 88.3532 40.4287 87.0032 40.4287ZM86.8232 37.0987C86.0532 37.0987 85.3632 36.9387 84.7532 36.6187C84.1532 36.2887 83.6732 35.8337 83.3132 35.2537C82.9632 34.6737 82.7882 34.0037 82.7882 33.2437C82.7882 32.4737 82.9632 31.8037 83.3132 31.2337C83.6732 30.6537 84.1532 30.2037 84.7532 29.8837C85.3632 29.5637 86.0532 29.4037 86.8232 29.4037C87.5032 29.4037 88.1232 29.5437 88.6832 29.8237C89.2432 30.0937 89.6882 30.5137 90.0182 31.0837C90.3582 31.6537 90.5282 32.3737 90.5282 33.2437C90.5282 34.1037 90.3582 34.8187 90.0182 35.3887C89.6882 35.9587 89.2432 36.3887 88.6832 36.6787C88.1232 36.9587 87.5032 37.0987 86.8232 37.0987ZM86.9882 35.8387C87.5182 35.8387 87.9882 35.7287 88.3982 35.5087C88.8082 35.2887 89.1282 34.9837 89.3582 34.5937C89.5982 34.2037 89.7182 33.7537 89.7182 33.2437C89.7182 32.7337 89.5982 32.2837 89.3582 31.8937C89.1282 31.5037 88.8082 31.2037 88.3982 30.9937C87.9882 30.7737 87.5182 30.6637 86.9882 30.6637C86.4582 30.6637 85.9832 30.7737 85.5632 30.9937C85.1532 31.2037 84.8282 31.5037 84.5882 31.8937C84.3582 32.2837 84.2432 32.7337 84.2432 33.2437C84.2432 33.7537 84.3582 34.2037 84.5882 34.5937C84.8282 34.9837 85.1532 35.2887 85.5632 35.5087C85.9832 35.7287 86.4582 35.8387 86.9882 35.8387ZM93.8796 37.4287V26.2987H95.3196V37.4287H93.8796ZM101.609 37.5187C100.759 37.5187 100.009 37.3437 99.3591 36.9937C98.7191 36.6437 98.2191 36.1637 97.8591 35.5537C97.5091 34.9437 97.3341 34.2437 97.3341 33.4537C97.3341 32.6637 97.5041 31.9637 97.8441 31.3537C98.1941 30.7437 98.6691 30.2687 99.2691 29.9287C99.8791 29.5787 100.564 29.4037 101.324 29.4037C102.094 29.4037 102.774 29.5737 103.364 29.9137C103.954 30.2537 104.414 30.7337 104.744 31.3537C105.084 31.9637 105.254 32.6787 105.254 33.4987C105.254 33.5587 105.249 33.6287 105.239 33.7087C105.239 33.7887 105.234 33.8637 105.224 33.9337H98.4591V32.8987H104.474L103.889 33.2587C103.899 32.7487 103.794 32.2937 103.574 31.8937C103.354 31.4937 103.049 31.1837 102.659 30.9637C102.279 30.7337 101.834 30.6187 101.324 30.6187C100.824 30.6187 100.379 30.7337 99.9891 30.9637C99.5991 31.1837 99.2941 31.4987 99.0741 31.9087C98.8541 32.3087 98.7441 32.7687 98.7441 33.2887V33.5287C98.7441 34.0587 98.8641 34.5337 99.1041 34.9537C99.3541 35.3637 99.6991 35.6837 100.139 35.9137C100.579 36.1437 101.084 36.2587 101.654 36.2587C102.124 36.2587 102.549 36.1787 102.929 36.0187C103.319 35.8587 103.659 35.6187 103.949 35.2987L104.744 36.2287C104.384 36.6487 103.934 36.9687 103.394 37.1887C102.864 37.4087 102.269 37.5187 101.609 37.5187ZM111.492 37.4287V26.9287H115.587C116.507 26.9287 117.292 27.0737 117.942 27.3637C118.592 27.6537 119.092 28.0737 119.442 28.6237C119.792 29.1737 119.967 29.8287 119.967 30.5887C119.967 31.3487 119.792 32.0037 119.442 32.5537C119.092 33.0937 118.592 33.5137 117.942 33.8137C117.292 34.1037 116.507 34.2487 115.587 34.2487H112.317L112.992 33.5437V37.4287H111.492ZM112.992 33.6937L112.317 32.9437H115.542C116.502 32.9437 117.227 32.7387 117.717 32.3287C118.217 31.9187 118.467 31.3387 118.467 30.5887C118.467 29.8387 118.217 29.2587 117.717 28.8487C117.227 28.4387 116.502 28.2337 115.542 28.2337H112.317L112.992 27.4837V33.6937ZM122.107 37.4287V26.2987H123.547V37.4287H122.107ZM131.232 37.4287V35.7487L131.157 35.4337V32.5687C131.157 31.9587 130.977 31.4887 130.617 31.1587C130.267 30.8187 129.737 30.6487 129.027 30.6487C128.557 30.6487 128.097 30.7287 127.647 30.8887C127.197 31.0387 126.817 31.2437 126.507 31.5037L125.907 30.4237C126.317 30.0937 126.807 29.8437 127.377 29.6737C127.957 29.4937 128.562 29.4037 129.192 29.4037C130.282 29.4037 131.122 29.6687 131.712 30.1987C132.302 30.7287 132.597 31.5387 132.597 32.6287V37.4287H131.232ZM128.622 37.5187C128.032 37.5187 127.512 37.4187 127.062 37.2187C126.622 37.0187 126.282 36.7437 126.042 36.3937C125.802 36.0337 125.682 35.6287 125.682 35.1787C125.682 34.7487 125.782 34.3587 125.982 34.0087C126.192 33.6587 126.527 33.3787 126.987 33.1687C127.457 32.9587 128.087 32.8537 128.877 32.8537H131.397V33.8887H128.937C128.217 33.8887 127.732 34.0087 127.482 34.2487C127.232 34.4887 127.107 34.7787 127.107 35.1187C127.107 35.5087 127.262 35.8237 127.572 36.0637C127.882 36.2937 128.312 36.4087 128.862 36.4087C129.402 36.4087 129.872 36.2887 130.272 36.0487C130.682 35.8087 130.977 35.4587 131.157 34.9987L131.442 35.9887C131.252 36.4587 130.917 36.8337 130.437 37.1137C129.957 37.3837 129.352 37.5187 128.622 37.5187ZM135.46 40.4287C135.08 40.4287 134.71 40.3637 134.35 40.2337C133.99 40.1137 133.68 39.9337 133.42 39.6937L134.035 38.6137C134.235 38.8037 134.455 38.9487 134.695 39.0487C134.935 39.1487 135.19 39.1987 135.46 39.1987C135.81 39.1987 136.1 39.1087 136.33 38.9287C136.56 38.7487 136.775 38.4287 136.975 37.9687L137.47 36.8737L137.62 36.6937L140.74 29.4787H142.15L138.295 38.2237C138.065 38.7837 137.805 39.2237 137.515 39.5437C137.235 39.8637 136.925 40.0887 136.585 40.2187C136.245 40.3587 135.87 40.4287 135.46 40.4287ZM137.35 37.6837L133.72 29.4787H135.22L138.31 36.5587L137.35 37.6837Z" fill="#160C4D"/>
</svg>
